<?xml version="1.0" standalone="no"?>
<!DOCTYPE svg PUBLIC "-//W3C//DTD SVG 20010904//EN"
 "http://www.w3.org/TR/2001/REC-SVG-20010904/DTD/svg10.dtd">
<svg version="1.0" xmlns="http://www.w3.org/2000/svg"
 width="128.000000pt" height="164.000000pt" viewBox="0 0 128.000000 164.000000"
 preserveAspectRatio="xMidYMid meet">

<g transform="translate(0.000000,164.000000) scale(0.100000,-0.100000)"
fill="#292929" stroke="none">
<path d="M500 1565 c0 -100 54 -165 135 -165 l38 0 -6 60 c-4 33 -14 74 -22
91 -20 38 -70 69 -112 69 l-33 0 0 -55z"/>
<path d="M723 1478 c-11 -13 -23 -35 -27 -50 -6 -27 -5 -28 38 -28 58 0 74 7
91 41 26 49 20 59 -33 59 -38 0 -53 -5 -69 -22z"/>
<path d="M387 1353 c-142 -32 -255 -137 -301 -279 -15 -45 -16 -108 -14 -528
l3 -478 37 -34 c34 -31 43 -34 97 -34 49 0 65 4 90 26 42 35 51 77 51 247 0
94 4 147 10 147 6 0 32 -11 58 -24 82 -41 149 -56 258 -56 113 0 200 23 291
76 63 36 192 166 225 226 119 216 108 443 -28 589 -54 57 -111 94 -182 116
-64 21 -512 25 -595 6z m468 -262 c158 -73 168 -294 21 -429 -68 -63 -126 -86
-211 -86 -56 0 -81 5 -126 27 -109 53 -189 174 -189 285 0 88 61 179 140 211
14 5 93 10 175 10 126 0 157 -2 190 -18z"/>
</g>
</svg>
