<?xml version="1.0" encoding="UTF-8"?>
<!DOCTYPE svg PUBLIC "-//W3C//DTD SVG 1.1//EN" "http://www.w3.org/Graphics/SVG/1.1/DTD/svg11.dtd">
<svg xmlns="http://www.w3.org/2000/svg" version="1.1" width="32px" height="32px" style="shape-rendering:geometricPrecision; text-rendering:geometricPrecision; image-rendering:optimizeQuality; fill-rule:evenodd; clip-rule:evenodd" xmlns:xlink="http://www.w3.org/1999/xlink">
<g><path style="opacity:0.631" fill="#010101" d="M 27.5,1.5 C 28.3764,1.36912 29.0431,1.70245 29.5,2.5C 28.018,4.48292 26.3513,6.31625 24.5,8C 29.5075,18.0983 26.5075,24.5983 15.5,27.5C 13.6183,26.9067 11.7849,26.2401 10,25.5C 7.57937,26.9606 5.07937,28.2939 2.5,29.5C 1.47899,28.9984 1.31232,28.3317 2,27.5C 3.5,26 5,24.5 6.5,23C 1.4925,12.9017 4.4925,6.40168 15.5,3.5C 19.9134,5.98824 23.9134,5.32157 27.5,1.5 Z M 11.5,6.5 C 13.5273,6.33788 15.5273,6.50454 17.5,7C 14.5875,8.37264 11.7542,9.87264 9,11.5C 9.02747,13.4174 9.8608,15.084 11.5,16.5C 10.5197,17.9814 9.35301,19.3147 8,20.5C 5.29038,14.7929 6.45705,10.1262 11.5,6.5 Z M 22.5,10.5 C 23.1174,10.6107 23.6174,10.944 24,11.5C 26.1606,20.662 22.6606,24.8287 13.5,24C 16.4125,22.6274 19.2458,21.1274 22,19.5C 21.9725,17.5826 21.1392,15.916 19.5,14.5C 20.5244,13.1482 21.5244,11.8149 22.5,10.5 Z"/></g>
</svg>
